<svg width="74" height="94" viewBox="0 0 74 94" fill="none" xmlns="http://www.w3.org/2000/svg">
<path d="M35.0753 0.0519962C53.3073 -0.906153 70.053 11.4824 73.3516 28.555C76.2056 43.3276 69.2049 53.6219 60.8274 65.0536C53.7694 74.686 46.2613 84.0502 38.9629 93.5058C37.5686 94.2975 35.703 94.1438 34.5731 93.0026C33.239 91.6569 31.5349 89.1154 30.3223 87.5257C27.1959 83.4262 24.1884 79.2365 21.0701 75.1295C9.86934 60.3747 -3.86746 46.7332 1.01374 26.8001C4.68499 11.8077 18.9974 0.897048 35.0753 0.0519962ZM66.6956 40.8661C68.9071 31.2744 65.3868 21.0754 57.9188 14.4217C43.983 2.00515 21.237 4.40814 11.1661 19.9571C7.12626 26.194 5.8108 33.68 7.2184 40.8941C20.1032 39.8431 24.6024 24.8152 37.208 23.0285C42.0719 22.3398 48.35 23.6995 50.9542 28.0327C52.5648 30.714 50.3212 30.4332 48.3981 31.263C44.4824 32.9531 41.2118 37.8417 45.1809 41.1431C49.2448 44.5233 55.9836 44.3175 60.8822 43.0149C62.8921 42.48 64.7738 41.612 66.6969 40.8661H66.6956ZM39.0777 28.9972C32.5873 29.5793 27.8663 36.1846 23.3644 40.0693C19.8761 43.081 15.9284 45.3023 11.3304 46.3913C10.9591 46.479 9.13082 46.7192 9.08675 46.9263C10.6586 50.5276 13.0892 53.7236 15.3822 56.9284C22.2987 66.5963 29.8429 75.8487 37.0411 85.3247L37.3509 85.1163C42.9146 77.6214 48.8508 70.3845 54.4238 62.8959C56.9145 59.55 59.751 55.9118 61.9746 52.4351C62.7305 51.2533 63.3782 50.1185 63.9178 48.8274C63.7281 48.5694 63.7295 48.7003 63.5558 48.7308C62.8146 48.8617 61.9359 49.1984 61.144 49.3598C53.9176 50.8301 46.1024 50.365 40.3758 45.4599C35.0686 40.9144 35.8098 33.957 40.4386 29.2743C40.5481 28.8028 39.3448 28.9718 39.0777 28.996V28.9972Z" fill="white"/>
</svg>
